<?xml version="1.0" standalone="no"?>

<svg version="1.0" xmlns="http://www.w3.org/2000/svg"
 width="301.000000pt" height="167.000000pt" viewBox="0 0 301.000000 167.000000"
>

    <g transform="translate(0.000000,167.000000) scale(0.100000,-0.100000)"
    fill="#9daab9" stroke="none">
    <path d="M1584 1654 c-10 -7 -57 -22 -103 -34 -46 -12 -104 -31 -128 -42 -37
    -17 -49 -19 -64 -10 -10 7 -35 12 -56 12 -20 0 -45 7 -55 17 -18 16 -21 16
    -61 -5 -23 -12 -58 -22 -77 -22 -39 0 -169 -35 -183 -49 -5 -5 26 -12 79 -16
    110 -9 124 -16 124 -59 0 -22 10 -46 30 -71 35 -44 37 -62 10 -147 -23 -75
    -26 -131 -5 -148 23 -19 55 -117 55 -170 0 -27 7 -75 15 -106 16 -63 13 -91
    -19 -146 -20 -35 -20 -38 -4 -66 9 -16 20 -60 24 -98 4 -38 13 -78 19 -89 7
    -11 16 -47 20 -80 7 -71 21 -120 38 -133 9 -8 12 36 11 191 -1 199 7 283 33
    322 17 25 16 63 -2 95 -17 30 -19 76 -4 132 10 39 9 50 -16 108 -34 82 -44
    170 -23 203 12 17 14 40 11 93 l-5 69 33 15 c29 13 34 21 37 55 5 59 16 67 81
    59 39 -5 63 -14 80 -30 21 -22 23 -29 17 -83 -5 -45 -4 -60 7 -64 10 -4 14
    -32 15 -112 1 -65 6 -113 13 -121 7 -9 9 -29 6 -51 -4 -21 1 -81 10 -134 l17
    -97 -29 -74 c-31 -76 -36 -137 -21 -243 4 -27 10 -111 14 -185 6 -116 10 -141
    30 -174 21 -36 22 -44 12 -81 -7 -23 -10 -53 -8 -66 4 -23 5 -23 26 11 17 27
    22 51 22 100 1 37 7 76 15 90 18 31 19 77 3 82 -13 5 -15 53 -9 309 2 93 6
    124 22 153 10 20 19 41 19 47 0 6 14 27 31 46 33 38 33 66 2 127 -17 32 -11
    140 9 163 7 9 7 27 -1 59 -15 59 -26 194 -18 226 4 14 22 44 41 69 29 35 32
    45 21 52 -8 4 -15 14 -15 21 0 8 -22 28 -50 46 -27 18 -50 35 -50 39 0 12 -24
    9 -46 -5z"/>
    <path d="M1970 1590 c-14 -11 -32 -26 -40 -34 -8 -7 -33 -17 -55 -20 -46 -9
    -105 -34 -105 -46 0 -12 59 -30 100 -30 21 0 54 -7 74 -15 l37 -16 -7 -92 c-5
    -74 -11 -97 -28 -115 -20 -22 -20 -24 -3 -37 15 -10 16 -22 11 -69 -6 -50 -4
    -59 16 -81 20 -21 22 -31 16 -79 -4 -38 -1 -64 9 -90 18 -42 15 -230 -4 -282
    -8 -20 -9 -39 -2 -55 6 -18 5 -30 -5 -43 -10 -14 -12 -47 -10 -130 3 -61 7
    -119 11 -128 12 -29 25 -10 25 36 0 31 8 55 31 89 30 46 31 49 30 165 -2 204
    3 263 27 312 29 60 28 73 -9 115 -31 35 -31 38 -20 77 7 22 15 46 17 53 3 7
    -2 20 -12 29 -29 30 -12 115 45 230 35 69 47 103 41 115 -4 9 -16 38 -25 65
    -22 61 -47 86 -84 86 -16 0 -35 2 -43 5 -7 2 -24 -4 -38 -15z"/>
    </g>
</svg>
